<svg width="385" height="101" viewBox="0 0 385 101" fill="none" xmlns="http://www.w3.org/2000/svg">
<rect y="11" width="385" height="90" rx="45" fill="#D7D7D7" fill-opacity="0.53"/>
<path d="M62.0047 29.44C60.6047 33.8 59.3047 37.74 58.1047 41.26C56.9447 44.78 55.8647 48.02 54.8647 50.98C53.9047 53.94 53.0047 56.68 52.1647 59.2C51.3247 61.68 50.5447 64.06 49.8247 66.34C49.4247 68.98 48.1247 70.84 45.9247 71.92C44.6447 72.52 43.1247 72.82 41.3647 72.82C39.6047 72.82 38.2847 72.62 37.4047 72.22C36.5247 71.86 35.9647 71.32 35.7247 70.6C35.4447 69.88 35.4447 69.02 35.7247 68.02C35.9647 66.98 36.4047 65.58 37.0447 63.82C37.6847 62.02 38.4847 59.6 39.4447 56.56C40.4447 53.52 41.4847 50.44 42.5647 47.32C45.2447 39.52 47.3647 34.12 48.9247 31.12C49.5247 30 50.1247 29.26 50.7247 28.9C51.3247 28.5 51.9047 28.22 52.4647 28.06C53.0247 27.86 53.5447 27.64 54.0247 27.4C54.5047 27.16 54.9247 26.56 55.2847 25.6C55.6847 24.64 56.3847 23.98 57.3847 23.62C58.4247 23.26 59.3847 23.24 60.2647 23.56C61.1847 23.84 61.8647 24.48 62.3047 25.48C62.7847 26.44 62.6847 27.76 62.0047 29.44ZM68.676 44.02C71.356 42.94 73.156 42.92 74.076 43.96C74.556 44.52 74.796 45.3 74.796 46.3V46.6C76.276 44.88 78.856 43.44 82.536 42.28C86.416 41.08 89.616 40.74 92.136 41.26C95.416 41.94 97.256 44.08 97.656 47.68C97.976 50.72 97.276 54.58 95.556 59.26C94.996 60.46 94.556 61.44 94.236 62.2C93.956 62.92 93.696 63.58 93.456 64.18C92.936 65.3 92.116 66.64 90.996 68.2C90.356 69.4 89.356 70.32 87.996 70.96C86.676 71.6 85.356 71.96 84.036 72.04C82.756 72.16 81.696 71.96 80.856 71.44C80.016 70.96 79.776 70.18 80.136 69.1C81.056 66.62 81.816 64.36 82.416 62.32C83.016 60.28 83.636 58.54 84.276 57.1C84.876 55.06 84.956 53.78 84.516 53.26C84.156 52.86 83.536 52.92 82.656 53.44C81.896 53.92 81.356 54.48 81.036 55.12C80.316 55.64 78.956 57.72 76.956 61.36C76.396 62.36 75.836 63.36 75.276 64.36C74.756 65.32 74.256 66.22 73.776 67.06C73.336 67.9 72.936 68.6 72.576 69.16C72.256 69.72 71.956 70.08 71.676 70.24C71.436 70.44 71.216 70.56 71.016 70.6C70.856 70.68 70.716 70.76 70.596 70.84C70.476 70.92 70.376 71.18 70.296 71.62C70.136 72.54 69.176 73.22 67.416 73.66C64.576 74.38 62.016 74.26 59.736 73.3C58.976 72.98 58.376 72.54 57.936 71.98C57.016 70.14 58.596 63.88 62.676 53.2C64.116 49.44 65.056 47.2 65.496 46.48C66.496 44.96 67.136 44.1 67.416 43.9C67.736 43.7 68.156 43.74 68.676 44.02ZM119.517 71.44C117.957 72.72 116.097 73.68 113.937 74.32C111.817 75 109.677 75.36 107.517 75.4C105.357 75.44 103.337 75.18 101.457 74.62C99.5766 74.06 98.0966 73.18 97.0166 71.98C95.7366 70.62 95.2966 69.26 95.6966 67.9C95.8966 67.34 96.2566 66.9 96.7766 66.58C97.2566 66.26 97.8566 66.18 98.5766 66.34C99.0566 66.38 99.3966 66.26 99.5966 65.98C99.8366 65.66 100.037 65.32 100.197 64.96C100.357 64.56 100.537 64.2 100.737 63.88C100.937 63.52 101.257 63.34 101.697 63.34C108.737 63.54 112.397 62.92 112.677 61.48C112.197 61.04 111.597 60.66 110.877 60.34C110.197 60.02 109.497 59.7 108.777 59.38C107.017 58.58 105.837 57.7 105.237 56.74C104.477 56.34 103.897 55.38 103.497 53.86C103.297 53.18 103.197 52.48 103.197 51.76C103.197 51.04 103.317 50.38 103.557 49.78C103.437 48.22 104.397 46.5 106.437 44.62C106.997 44.1 107.697 43.54 108.537 42.94C109.377 42.34 110.637 41.76 112.317 41.2C113.997 40.64 115.657 40.24 117.297 40C118.977 39.72 120.477 39.62 121.797 39.7C123.157 39.78 124.117 40.1 124.677 40.66C125.277 41.22 125.737 41.92 126.057 42.76C126.417 43.6 126.537 44.42 126.417 45.22C126.097 47.02 124.617 48.26 121.977 48.94C118.657 49.42 117.057 49.86 117.177 50.26C117.177 50.34 117.037 50.44 116.757 50.56C119.837 52.68 121.977 54.76 123.177 56.8C124.817 59.6 125.057 62.72 123.897 66.16C124.097 67.28 123.097 68.68 120.897 70.36C120.377 70.76 119.917 71.12 119.517 71.44ZM152.748 40.54C154.308 40.74 155.348 41.3 155.868 42.22C156.428 43.1 156.648 44.06 156.528 45.1C156.408 46.1 156.028 47.02 155.388 47.86C154.788 48.66 154.108 49.08 153.348 49.12C153.068 49.96 152.628 50.54 152.028 50.86C151.428 51.18 150.768 51.4 150.048 51.52C149.328 51.64 148.568 51.78 147.768 51.94C147.008 52.06 146.288 52.4 145.608 52.96C144.928 53.52 144.348 54.08 143.868 54.64C143.428 55.16 143.068 55.68 142.788 56.2C142.308 57.08 141.888 58.16 141.528 59.44C141.448 60.32 141.868 61.14 142.788 61.9C143.868 62.74 145.048 63.12 146.328 63.04C147.608 62.92 148.628 62.98 149.388 63.22C150.188 63.42 150.788 63.72 151.188 64.12C152.068 65.04 151.988 66.1 150.948 67.3C148.948 70.5 145.588 72.4 140.868 73C139.468 73.2 138.068 73.24 136.668 73.12C135.268 73.04 133.908 72.52 132.588 71.56C131.268 70.6 130.228 69.3 129.468 67.66C127.788 63.9 127.928 59.52 129.888 54.52C131.768 49.84 134.588 46.24 138.348 43.72C142.468 40.92 147.268 39.86 152.748 40.54ZM161.107 45.16C161.667 43.72 162.447 42.64 163.447 41.92C164.487 41.16 165.467 40.7 166.387 40.54C167.347 40.34 168.127 40.44 168.727 40.84C169.367 41.24 169.587 41.86 169.387 42.7C170.147 41.94 171.247 41.24 172.687 40.6C174.127 39.96 175.267 39.52 176.107 39.28C176.947 39.04 177.667 38.92 178.267 38.92C179.587 39 179.967 39.72 179.407 41.08C180.087 41.2 180.587 41.64 180.907 42.4C181.227 43.16 181.267 44 181.027 44.92C180.787 45.84 180.247 46.74 179.407 47.62C178.567 48.5 177.427 49.1 175.987 49.42C174.587 49.74 173.407 50.48 172.447 51.64C171.527 52.76 170.707 54.16 169.987 55.84C168.787 58.68 167.707 62.7 166.747 67.9C166.427 69.78 165.127 71.36 162.847 72.64C160.687 73.88 158.707 74.24 156.907 73.72C154.867 73.16 153.967 71.66 154.207 69.22C154.287 67.5 154.807 65.22 155.767 62.38C156.727 59.5 157.467 57.34 157.987 55.9C158.507 54.42 158.867 53.3 159.067 52.54L161.107 45.16ZM186.635 44.02C187.155 42.7 188.395 41.8 190.355 41.32C192.195 40.84 193.915 40.9 195.515 41.5C197.155 42.14 197.895 43.18 197.735 44.62C197.295 46.02 196.735 47.74 196.055 49.78C195.415 51.78 194.795 53.84 194.195 55.96C192.595 61.4 191.675 65.24 191.435 67.48C190.835 71.08 189.835 73.02 188.435 73.3C188.035 73.38 187.655 73.44 187.295 73.48C186.415 73.52 185.855 73.76 185.615 74.2C185.375 74.64 184.975 74.96 184.415 75.16C183.855 75.4 183.235 75.5 182.555 75.46C181.915 75.46 181.255 75.3 180.575 74.98C179.895 74.7 179.315 74.28 178.835 73.72C177.715 72.36 177.495 70.54 178.175 68.26C178.815 63.9 180.435 58.36 183.035 51.64C184.275 48.32 185.475 45.78 186.635 44.02ZM197.975 35.02C196.015 35.42 194.415 35.3 193.175 34.66C191.975 34.02 191.275 33.26 191.075 32.38C190.875 31.46 191.155 30.52 191.915 29.56C192.795 28.36 194.115 27.58 195.875 27.22C196.675 27.14 197.255 27.1 197.615 27.1C197.975 27.1 198.415 27.18 198.935 27.34C200.255 27.46 201.115 28.04 201.515 29.08C202.075 29.96 202.115 30.96 201.635 32.08C201.195 33.2 199.975 34.18 197.975 35.02ZM212.452 45.46C214.452 42.46 217.232 40.66 220.792 40.06C221.952 39.86 223.372 39.72 225.052 39.64C226.772 39.56 228.232 39.94 229.432 40.78C230.672 41.62 231.592 42.7 232.192 44.02C233.232 46.38 233.392 49.28 232.672 52.72C232.272 54.6 231.792 56.68 231.232 58.96C230.672 61.2 229.832 63.42 228.712 65.62C227.592 67.82 226.132 69.88 224.332 71.8C222.532 73.72 220.192 75.24 217.312 76.36C215.592 77.04 214.072 77.28 212.752 77.08C211.472 76.92 210.512 76.66 209.872 76.3C209.232 75.94 208.792 75.42 208.552 74.74C207.752 77.02 206.992 79.32 206.272 81.64C205.592 84 204.672 86.24 203.512 88.36C202.712 88.88 201.732 89.26 200.572 89.5C199.412 89.78 198.272 89.72 197.152 89.32C196.032 88.96 195.232 88.28 194.752 87.28C194.232 86.32 193.972 85.26 193.972 84.1C193.972 82.54 194.352 80.64 195.112 78.4C196.232 75.08 197.152 72.52 197.872 70.72C198.552 68.92 198.992 67.76 199.192 67.24C199.392 66.68 199.592 66.1 199.792 65.5C200.672 63.18 201.312 61.3 201.712 59.86C202.152 58.38 202.552 57.1 202.912 56.02V55.96C203.312 54.2 203.932 52.34 204.772 50.38C205.652 48.38 206.252 47.16 206.572 46.72C207.252 46.04 207.952 45.62 208.672 45.46C209.392 45.3 210.212 45.2 211.132 45.16H211.312L212.452 45.46ZM217.012 55.48C216.532 56.32 215.732 57.1 214.612 57.82L214.072 59.08C213.672 60.12 213.292 61.18 212.932 62.26C212.572 63.34 212.172 64.4 211.732 65.44C212.132 65.84 212.432 66.22 212.632 66.58C214.872 64.62 216.912 62.04 218.752 58.84C219.472 57.52 219.932 56.2 220.132 54.88C220.372 53.56 220.432 52.72 220.312 52.36C220.192 52 219.992 51.82 219.712 51.82C219.472 51.82 219.212 51.9 218.932 52.06C218.692 52.18 218.492 52.32 218.332 52.48C218.212 52.6 218.232 52.6 218.392 52.48C217.952 53 217.632 53.46 217.432 53.86C217.232 54.22 217.092 54.76 217.012 55.48ZM249.525 25.12L249.585 24.88L250.125 24.34C250.565 23.3 251.045 22.68 251.565 22.48C251.845 22.4 252.205 22.3 252.645 22.18C253.085 22.06 253.665 21.76 254.385 21.28C254.665 20.72 255.245 20.48 256.125 20.56C257.005 20.6 257.865 20.88 258.705 21.4C259.585 21.88 260.285 22.56 260.805 23.44C261.365 24.32 261.505 25.24 261.225 26.2C260.945 27.12 260.705 27.82 260.505 28.3C260.345 28.74 260.165 29.16 259.965 29.56C259.805 29.96 259.585 30.42 259.305 30.94C259.065 31.42 258.745 32.08 258.345 32.92L256.365 37.06C256.165 37.58 255.985 37.88 255.825 37.96C255.705 38.04 255.585 38.18 255.465 38.38C255.825 38.3 256.125 38.24 256.365 38.2C256.605 38.16 256.845 38.12 257.085 38.08C257.645 38 258.285 37.92 259.005 37.84C259.445 37.92 259.825 37.96 260.145 37.96H260.985C261.465 37.96 262.045 38.1 262.725 38.38C263.405 38.62 263.845 39.06 264.045 39.7C264.245 40.34 264.265 41 264.105 41.68C263.945 42.32 263.625 42.92 263.145 43.48C262.665 44.04 262.045 44.34 261.285 44.38C257.805 45.34 255.325 45.86 253.845 45.94L253.485 46.36V46.42C253.085 47.38 252.645 48.6 252.165 50.08C251.725 51.52 251.225 53.1 250.665 54.82C250.145 56.5 249.605 58.26 249.045 60.1C248.485 61.9 247.905 63.64 247.305 65.32C245.385 70.96 243.985 74.02 243.105 74.5C242.785 74.66 242.445 74.76 242.085 74.8C241.765 74.88 241.585 74.94 241.545 74.98C240.145 74.9 238.985 74.62 238.065 74.14C237.145 73.66 236.525 73.2 236.205 72.76C235.885 72.32 235.805 71.82 235.965 71.26C236.725 64.3 238.245 56.68 240.525 48.4C239.725 48.4 239.165 48.48 238.845 48.64C238.245 48.96 237.525 49.14 236.685 49.18H236.625C235.985 49.14 235.405 48.84 234.885 48.28C234.365 47.72 234.045 47.08 233.925 46.36C233.805 45.64 233.925 44.9 234.285 44.14C234.645 43.38 235.365 42.78 236.445 42.34C237.725 41.98 238.665 41.68 239.265 41.44C240.425 40.96 241.385 40.62 242.145 40.42C242.945 40.22 243.385 40.1 243.465 40.06C243.585 39.98 243.665 39.92 243.705 39.88C243.825 39.8 244.125 39.76 244.605 39.76C244.845 38.6 245.085 37.42 245.325 36.22C245.565 35.02 245.865 33.8 246.225 32.56C247.025 29.68 248.125 27.2 249.525 25.12ZM267.318 44.02C267.838 42.7 269.078 41.8 271.038 41.32C272.878 40.84 274.598 40.9 276.198 41.5C277.838 42.14 278.578 43.18 278.418 44.62C277.978 46.02 277.418 47.74 276.738 49.78C276.098 51.78 275.478 53.84 274.878 55.96C273.278 61.4 272.358 65.24 272.118 67.48C271.518 71.08 270.518 73.02 269.118 73.3C268.718 73.38 268.338 73.44 267.978 73.48C267.098 73.52 266.538 73.76 266.298 74.2C266.058 74.64 265.658 74.96 265.098 75.16C264.538 75.4 263.918 75.5 263.238 75.46C262.598 75.46 261.938 75.3 261.258 74.98C260.578 74.7 259.998 74.28 259.518 73.72C258.398 72.36 258.178 70.54 258.858 68.26C259.498 63.9 261.118 58.36 263.718 51.64C264.958 48.32 266.158 45.78 267.318 44.02ZM278.658 35.02C276.698 35.42 275.098 35.3 273.858 34.66C272.658 34.02 271.958 33.26 271.758 32.38C271.558 31.46 271.838 30.52 272.598 29.56C273.478 28.36 274.798 27.58 276.558 27.22C277.358 27.14 277.938 27.1 278.298 27.1C278.658 27.1 279.098 27.18 279.618 27.34C280.938 27.46 281.798 28.04 282.198 29.08C282.758 29.96 282.798 30.96 282.318 32.08C281.878 33.2 280.658 34.18 278.658 35.02ZM287.076 44.38C287.916 43.78 288.956 43.64 290.196 43.96C290.436 44 290.676 44.02 290.916 44.02C291.796 42.22 293.316 41.28 295.476 41.2C296.036 41.16 296.816 41.06 297.816 40.9C298.816 40.74 300.016 40.78 301.416 41.02C302.856 41.26 304.116 41.68 305.196 42.28C307.556 43.56 308.976 45.4 309.456 47.8C310.416 51.32 310.276 55.16 309.036 59.32C307.716 63.92 305.476 67.6 302.316 70.36C300.876 71.64 299.356 72.44 297.756 72.76C296.156 73.12 294.716 73.32 293.436 73.36C292.156 73.4 290.976 73.4 289.896 73.36C288.856 73.36 287.836 73.26 286.836 73.06C284.676 72.62 282.896 71.6 281.496 70C279.856 68.2 279.156 65.4 279.396 61.6C279.556 58.24 280.396 54.86 281.916 51.46C283.476 48.02 285.196 45.66 287.076 44.38ZM297.636 56.44C296.636 56.76 295.696 56.9 294.816 56.86C294.376 57.3 293.976 57.78 293.616 58.3C293.296 58.78 292.856 59.24 292.296 59.68C291.736 60.08 291.456 60.24 291.456 60.16C290.776 61.12 290.216 62.12 289.776 63.16C289.336 64.16 289.336 65.18 289.776 66.22C291.376 66.38 292.556 66.34 293.316 66.1C294.076 65.86 294.776 65.4 295.416 64.72C296.096 64.04 296.616 63.24 296.976 62.32C297.696 60.6 297.916 58.64 297.636 56.44ZM320.16 44.02C322.84 42.94 324.64 42.92 325.56 43.96C326.04 44.52 326.28 45.3 326.28 46.3V46.6C327.76 44.88 330.34 43.44 334.02 42.28C337.9 41.08 341.1 40.74 343.62 41.26C346.9 41.94 348.74 44.08 349.14 47.68C349.46 50.72 348.76 54.58 347.04 59.26C346.48 60.46 346.04 61.44 345.72 62.2C345.44 62.92 345.18 63.58 344.94 64.18C344.42 65.3 343.6 66.64 342.48 68.2C341.84 69.4 340.84 70.32 339.48 70.96C338.16 71.6 336.84 71.96 335.52 72.04C334.24 72.16 333.18 71.96 332.34 71.44C331.5 70.96 331.26 70.18 331.62 69.1C332.54 66.62 333.3 64.36 333.9 62.32C334.5 60.28 335.12 58.54 335.76 57.1C336.36 55.06 336.44 53.78 336 53.26C335.64 52.86 335.02 52.92 334.14 53.44C333.38 53.92 332.84 54.48 332.52 55.12C331.8 55.64 330.44 57.72 328.44 61.36C327.88 62.36 327.32 63.36 326.76 64.36C326.24 65.32 325.74 66.22 325.26 67.06C324.82 67.9 324.42 68.6 324.06 69.16C323.74 69.72 323.44 70.08 323.16 70.24C322.92 70.44 322.7 70.56 322.5 70.6C322.34 70.68 322.2 70.76 322.08 70.84C321.96 70.92 321.86 71.18 321.78 71.62C321.62 72.54 320.66 73.22 318.9 73.66C316.06 74.38 313.5 74.26 311.22 73.3C310.46 72.98 309.86 72.54 309.42 71.98C308.5 70.14 310.08 63.88 314.16 53.2C315.6 49.44 316.54 47.2 316.98 46.48C317.98 44.96 318.62 44.1 318.9 43.9C319.22 43.7 319.64 43.74 320.16 44.02Z" fill="#663232"/>
</svg>
