<svg width="271" height="93" viewBox="0 0 271 93" fill="none" xmlns="http://www.w3.org/2000/svg">
<rect y="3" width="271" height="90" rx="45" fill="#D7D7D7" fill-opacity="0.53"/>
<path d="M47.6033 68.02L47.1833 29.26C47.1833 28.3 47.5633 27.48 48.3233 26.8C49.1233 26.08 50.0233 25.58 51.0233 25.3C52.0233 25.02 52.9633 24.98 53.8433 25.18C54.7233 25.38 55.2833 25.9 55.5233 26.74C56.2833 28.26 56.8033 30.36 57.0833 33.04C57.6033 38.04 57.8633 42.36 57.8633 46C58.2633 46.64 58.7633 46.94 59.3633 46.9C61.0833 42.7 62.9833 38.66 65.0633 34.78C67.1433 30.9 68.4833 28.42 69.0833 27.34C69.6833 26.22 70.4033 25.44 71.2433 25C72.0833 24.56 72.9833 24.28 73.9433 24.16C76.0233 23.92 77.9833 24.28 79.8233 25.24C81.2233 25.72 82.0433 26.54 82.2833 27.7C83.2033 29.54 82.5833 31.66 80.4233 34.06C77.9033 38.06 75.3633 42.48 72.8033 47.32C67.9233 56.64 64.8233 62.38 63.5033 64.54C62.1833 66.7 61.2233 68.24 60.6233 69.16C60.0233 70.04 59.3433 70.78 58.5833 71.38C57.2233 72.46 55.5833 72.9 53.6633 72.7C50.3033 72.58 48.3433 71.52 47.7833 69.52C47.6633 68.96 47.6033 68.46 47.6033 68.02ZM101.222 44.26L101.462 44.32C101.542 44.32 101.582 44.34 101.582 44.38C102.622 43.98 103.482 44.28 104.162 45.28C104.602 45.96 104.942 47 105.182 48.4C105.262 50.32 105.062 52.98 104.582 56.38C103.662 63.26 103.162 67.36 103.082 68.68C103.162 70.08 102.302 71.04 100.502 71.56C98.9422 72.04 97.3822 72.02 95.8222 71.5C94.1822 70.94 93.5022 70.08 93.7822 68.92C93.4622 69.52 93.1422 69.94 92.8222 70.18C92.5022 70.46 91.8622 70.82 90.9022 71.26C89.9822 71.74 88.6622 72.12 86.9422 72.4C85.2222 72.72 83.5022 72.8 81.7822 72.64C80.0622 72.52 78.4822 72.1 77.0422 71.38C75.6422 70.7 74.7022 69.62 74.2222 68.14C73.3022 65.26 73.4222 61.6 74.5822 57.16C75.3822 54.24 76.8222 51.66 78.9022 49.42C81.3022 46.86 84.0222 44.74 87.0622 43.06C89.3422 41.82 91.5422 41.08 93.6622 40.84C94.3822 40.76 95.0022 40.78 95.5222 40.9C96.0822 41.02 96.6622 41.14 97.2622 41.26C97.9022 41.38 98.5022 41.56 99.0622 41.8C100.502 42.4 101.222 43.22 101.222 44.26ZM90.1222 60.16C90.4022 59.6 90.6222 58.9 90.7822 58.06C90.9822 57.22 91.2422 56.3 91.5622 55.3C88.3222 56.62 85.8422 58.24 84.1222 60.16C82.2422 62.28 82.3622 63.74 84.4822 64.54C86.3222 65.02 87.6622 64.72 88.5022 63.64C88.8622 63.16 89.1822 62.56 89.4622 61.84C89.7422 61.12 90.0822 60.38 90.4822 59.62C90.3622 59.82 90.2422 60 90.1222 60.16ZM117.67 67.66C117.43 68.5 117.15 69.24 116.83 69.88C116.51 70.52 116.03 71.12 115.39 71.68C114.75 72.24 113.99 72.76 113.11 73.24C112.23 73.76 111.39 74.12 110.59 74.32C108.75 74.72 107.79 74.18 107.71 72.7C107.59 72.3 107.33 72.06 106.93 71.98C106.57 71.94 106.23 71.84 105.91 71.68C105.07 71.32 104.83 70.34 105.19 68.74C105.83 66.54 106.53 63.88 107.29 60.76C108.05 57.6 109.03 54.14 110.23 50.38C113.07 41.26 116.59 33.04 120.79 25.72C121.07 25.36 121.39 24.9 121.75 24.34C122.11 23.74 122.57 23.2 123.13 22.72C124.53 21.44 126.25 21.14 128.29 21.82C128.25 22.34 128.37 22.82 128.65 23.26C128.93 23.66 129.25 24.08 129.61 24.52C130.53 25.56 130.95 26.5 130.87 27.34C126.63 37.38 122.81 48.6 119.41 61C119.01 62.44 118.69 63.7 118.45 64.78C118.21 65.86 117.95 66.82 117.67 67.66ZM131.467 44.02C131.987 42.7 133.227 41.8 135.187 41.32C137.027 40.84 138.747 40.9 140.347 41.5C141.987 42.14 142.727 43.18 142.567 44.62C142.127 46.02 141.567 47.74 140.887 49.78C140.247 51.78 139.627 53.84 139.027 55.96C137.427 61.4 136.507 65.24 136.267 67.48C135.667 71.08 134.667 73.02 133.267 73.3C132.867 73.38 132.487 73.44 132.127 73.48C131.247 73.52 130.687 73.76 130.447 74.2C130.207 74.64 129.807 74.96 129.247 75.16C128.687 75.4 128.067 75.5 127.387 75.46C126.747 75.46 126.087 75.3 125.407 74.98C124.727 74.7 124.147 74.28 123.667 73.72C122.547 72.36 122.327 70.54 123.007 68.26C123.647 63.9 125.267 58.36 127.867 51.64C129.107 48.32 130.307 45.78 131.467 44.02ZM142.807 35.02C140.847 35.42 139.247 35.3 138.007 34.66C136.807 34.02 136.107 33.26 135.907 32.38C135.707 31.46 135.987 30.52 136.747 29.56C137.627 28.36 138.947 27.58 140.707 27.22C141.507 27.14 142.087 27.1 142.447 27.1C142.807 27.1 143.247 27.18 143.767 27.34C145.087 27.46 145.947 28.04 146.347 29.08C146.907 29.96 146.947 30.96 146.467 32.08C146.027 33.2 144.807 34.18 142.807 35.02ZM155.004 45.46C156.484 44.46 158.184 44.16 160.104 44.56C162.024 45 163.104 45.84 163.344 47.08C163.664 46.32 163.904 45.56 164.064 44.8C165.864 36.68 167.844 30.48 170.004 26.2C170.684 24.88 171.384 23.96 172.104 23.44C173.984 22.24 175.964 22.08 178.044 22.96C178.884 23.32 179.544 23.82 180.024 24.46C180.504 25.06 180.684 25.62 180.564 26.14C180.484 26.66 180.524 27.08 180.684 27.4C180.884 27.72 181.104 28.04 181.344 28.36C181.984 29.12 182.244 29.78 182.124 30.34C181.324 33.5 180.244 36.78 178.884 40.18C177.564 43.54 176.204 46.9 174.804 50.26C173.404 53.62 172.124 56.94 170.964 60.22C169.844 63.46 169.104 66.54 168.744 69.46C168.744 70.22 168.424 70.9 167.784 71.5C167.144 72.14 166.344 72.64 165.384 73C163.104 73.8 160.984 73.64 159.024 72.52V72.16C158.624 72.04 158.324 71.96 158.124 71.92C157.964 71.88 157.844 71.8 157.764 71.68C157.644 71.48 157.544 70.86 157.464 69.82C156.664 71.06 155.884 71.82 155.124 72.1C154.364 72.38 153.584 72.52 152.784 72.52C148.904 72.52 146.144 71.82 144.504 70.42C143.064 69.22 142.384 67.26 142.464 64.54C142.544 61.5 143.664 58.1 145.824 54.34C148.304 50.06 151.364 47.1 155.004 45.46ZM154.944 65.14C156.224 65.58 157.104 65.28 157.584 64.24C157.864 63.72 158.124 63.04 158.364 62.2C158.644 61.36 158.984 60.38 159.384 59.26L159.624 58.06C158.664 57.5 157.784 57.42 156.984 57.82C156.224 58.22 155.604 58.84 155.124 59.68C154.644 60.52 154.364 61.46 154.284 62.5C154.204 63.54 154.424 64.42 154.944 65.14ZM196.284 61.12C195.524 61.48 194.784 61.76 194.064 61.96C193.344 62.16 192.504 62.36 191.544 62.56C189.024 63.08 187.204 63.38 186.084 63.46C186.204 63.86 186.804 64.34 187.884 64.9C188.604 65.02 189.384 64.92 190.224 64.6C191.104 64.24 192.004 63.92 192.924 63.64C193.884 63.32 194.804 63.14 195.684 63.1C196.604 63.06 197.464 63.4 198.264 64.12C198.584 64.84 198.844 65.26 199.044 65.38C199.244 65.5 199.424 65.56 199.584 65.56C199.744 65.56 199.924 65.62 200.124 65.74C200.324 65.86 200.604 66.32 200.964 67.12C201.364 67.92 201.264 68.68 200.664 69.4C200.104 70.12 199.224 70.74 198.024 71.26C196.824 71.78 195.424 72.2 193.824 72.52C192.224 72.84 190.624 73.06 189.024 73.18C185.424 73.46 182.684 73.18 180.804 72.34C178.084 71.42 176.324 69.6 175.524 66.88C174.484 63.28 175.064 59.08 177.264 54.28C178.264 52.04 179.844 49.64 182.004 47.08C183.884 44.84 185.984 43.22 188.304 42.22C190.984 41.06 193.784 40.52 196.704 40.6C199.824 40.68 201.984 42.04 203.184 44.68C203.784 46.08 203.904 48.04 203.544 50.56C202.904 53.84 202.064 56.16 201.024 57.52C199.984 58.84 198.404 60.04 196.284 61.12ZM192.804 51.64C190.684 51.2 189.024 52.4 187.824 55.24C187.464 56 187.184 56.8 186.984 57.64C188.344 57.8 189.784 57.04 191.304 55.36C191.864 54.68 192.284 54 192.564 53.32C192.844 52.6 192.924 52.04 192.804 51.64ZM210.529 45.16C211.089 43.72 211.869 42.64 212.869 41.92C213.909 41.16 214.889 40.7 215.809 40.54C216.769 40.34 217.549 40.44 218.149 40.84C218.789 41.24 219.009 41.86 218.809 42.7C219.569 41.94 220.669 41.24 222.109 40.6C223.549 39.96 224.689 39.52 225.529 39.28C226.369 39.04 227.089 38.92 227.689 38.92C229.009 39 229.389 39.72 228.829 41.08C229.509 41.2 230.009 41.64 230.329 42.4C230.649 43.16 230.689 44 230.449 44.92C230.209 45.84 229.669 46.74 228.829 47.62C227.989 48.5 226.849 49.1 225.409 49.42C224.009 49.74 222.829 50.48 221.869 51.64C220.949 52.76 220.129 54.16 219.409 55.84C218.209 58.68 217.129 62.7 216.169 67.9C215.849 69.78 214.549 71.36 212.269 72.64C210.109 73.88 208.129 74.24 206.329 73.72C204.289 73.16 203.389 71.66 203.629 69.22C203.709 67.5 204.229 65.22 205.189 62.38C206.149 59.5 206.889 57.34 207.409 55.9C207.929 54.42 208.289 53.3 208.489 52.54L210.529 45.16Z" fill="#663232"/>
</svg>
