<svg width="236" height="66" viewBox="0 0 236 66" fill="none" xmlns="http://www.w3.org/2000/svg">
<path d="M0 33C0 14.7746 14.7746 2.82596e-05 33 2.82596e-05H203C221.225 2.82596e-05 236 14.7746 236 33C236 51.2254 221.225 66 203 66H33C14.7746 66 0 51.2254 0 33Z" fill="#D49720" fill-opacity="0.82"/>
<path d="M34.8531 46.144C34.5651 47.424 33.5731 48.208 31.8771 48.496C30.3091 48.784 28.8211 48.608 27.4131 47.968C25.8451 47.296 25.1571 46.352 25.3491 45.136C25.1571 43.28 26.1331 39.248 28.2771 33.04C31.4771 23.728 34.6771 17.072 37.8771 13.072C38.7091 12.048 39.4131 11.392 39.9891 11.104C40.5971 10.784 41.2851 10.496 42.0531 10.24C42.8211 9.984 43.6211 9.744 44.4531 9.52C46.1171 9.072 47.6851 8.768 49.1571 8.608C50.6611 8.416 52.0051 8.592 53.1891 9.136C54.3731 9.648 55.2851 10.416 55.9251 11.44C56.5971 12.464 57.0131 13.68 57.1731 15.088C57.3331 16.464 57.2851 17.92 57.0291 19.456C56.7731 20.96 56.3091 22.496 55.6371 24.064C54.9651 25.6 54.1171 27.04 53.0931 28.384C50.8531 31.328 48.2291 33.232 45.2211 34.096L45.7011 34.912C46.1171 35.552 46.6131 36.256 47.1891 37.024C47.7971 37.792 48.3891 38.576 48.9651 39.376C49.5731 40.176 50.1171 40.976 50.5971 41.776C51.0771 42.576 51.4291 43.328 51.6531 44.032C52.1651 45.6 51.7651 46.736 50.4531 47.44C49.3971 48.08 48.5651 48.24 47.9571 47.92C47.7011 47.76 47.4451 47.552 47.1891 47.296C46.9331 47.072 46.5811 46.88 46.1331 46.72C44.2451 47.264 42.8051 46.784 41.8131 45.28C41.2051 44.32 40.7411 43.44 40.4211 42.64C40.1011 41.84 39.8291 41.168 39.6051 40.624C39.0291 39.44 38.3731 38.416 37.6371 37.552C37.2851 38.416 36.8851 39.52 36.4371 40.864C35.8931 42.56 35.2851 44.32 34.6131 46.144H34.8531ZM44.5491 18.208C43.9411 19.584 43.5251 20.544 43.3011 21.088C42.8531 22.176 42.3571 23.376 41.8131 24.688C41.7171 25.392 41.6371 25.888 41.5731 26.176L42.2451 25.504L43.0611 25.12C43.6371 24.8 44.1651 24.512 44.6451 24.256C45.1251 24 45.5571 23.68 45.9411 23.296C46.6771 22.56 47.3171 21.36 47.8611 19.696C47.8611 19.376 47.9091 19.056 48.0051 18.736C48.1331 18.416 48.2131 18.096 48.2451 17.776C48.3731 17.072 48.0851 16.576 47.3811 16.288C46.7411 16.224 45.9411 16.752 44.9811 17.872C44.7891 18.096 44.6451 18.208 44.5491 18.208ZM71.1426 38.896C70.5346 39.184 69.9426 39.408 69.3666 39.568C68.7906 39.728 68.1186 39.888 67.3506 40.048C65.3346 40.464 63.8786 40.704 62.9826 40.768C63.0786 41.088 63.5586 41.472 64.4226 41.92C64.9986 42.016 65.6226 41.936 66.2946 41.68C66.9986 41.392 67.7186 41.136 68.4546 40.912C69.2226 40.656 69.9586 40.512 70.6626 40.48C71.3986 40.448 72.0866 40.72 72.7266 41.296C72.9826 41.872 73.1906 42.208 73.3506 42.304C73.5106 42.4 73.6546 42.448 73.7826 42.448C73.9106 42.448 74.0546 42.496 74.2146 42.592C74.3746 42.688 74.5986 43.056 74.8866 43.696C75.2066 44.336 75.1266 44.944 74.6466 45.52C74.1986 46.096 73.4946 46.592 72.5346 47.008C71.5746 47.424 70.4546 47.76 69.1746 48.016C67.8946 48.272 66.6146 48.448 65.3346 48.544C62.4546 48.768 60.2626 48.544 58.7586 47.872C56.5826 47.136 55.1746 45.68 54.5346 43.504C53.7026 40.624 54.1666 37.264 55.9266 33.424C56.7266 31.632 57.9906 29.712 59.7186 27.664C61.2226 25.872 62.9026 24.576 64.7586 23.776C66.9026 22.848 69.1426 22.416 71.4786 22.48C73.9746 22.544 75.7026 23.632 76.6626 25.744C77.1426 26.864 77.2386 28.432 76.9506 30.448C76.4386 33.072 75.7666 34.928 74.9346 36.016C74.1026 37.072 72.8386 38.032 71.1426 38.896ZM68.3586 31.312C66.6626 30.96 65.3346 31.92 64.3746 34.192C64.0866 34.8 63.8626 35.44 63.7026 36.112C64.7906 36.24 65.9426 35.632 67.1586 34.288C67.6066 33.744 67.9426 33.2 68.1666 32.656C68.3906 32.08 68.4546 31.632 68.3586 31.312ZM74.5026 8.56C76.3906 8.688 77.7826 9.168 78.6786 10C79.7026 10.896 79.6386 11.824 78.4866 12.784C78.3906 13.136 78.1986 13.52 77.9106 13.936C75.9266 15.92 74.2626 17.264 72.9186 17.968C71.0946 18.896 69.6546 19.152 68.5986 18.736C67.5106 18.32 67.3026 17.376 67.9746 15.904L68.2626 15.568C68.3586 14.352 69.1426 12.736 70.6146 10.72C70.9666 10.24 71.2706 9.904 71.5266 9.712C72.3906 9.2 73.3346 8.816 74.3586 8.56H74.5026ZM93.751 47.152C92.503 48.176 91.015 48.944 89.287 49.456C87.591 50 85.879 50.288 84.151 50.32C82.423 50.352 80.807 50.144 79.303 49.696C77.799 49.248 76.615 48.544 75.751 47.584C74.727 46.496 74.375 45.408 74.695 44.32C74.855 43.872 75.143 43.52 75.559 43.264C75.943 43.008 76.423 42.944 76.999 43.072C77.383 43.104 77.655 43.008 77.815 42.784C78.007 42.528 78.167 42.256 78.295 41.968C78.423 41.648 78.567 41.36 78.727 41.104C78.887 40.816 79.143 40.672 79.495 40.672C85.127 40.832 88.055 40.336 88.279 39.184C87.895 38.832 87.415 38.528 86.839 38.272C86.295 38.016 85.735 37.76 85.159 37.504C83.751 36.864 82.807 36.16 82.327 35.392C81.719 35.072 81.255 34.304 80.935 33.088C80.775 32.544 80.695 31.984 80.695 31.408C80.695 30.832 80.791 30.304 80.983 29.824C80.887 28.576 81.655 27.2 83.287 25.696C83.735 25.28 84.295 24.832 84.967 24.352C85.639 23.872 86.647 23.408 87.991 22.96C89.335 22.512 90.663 22.192 91.975 22C93.319 21.776 94.519 21.696 95.575 21.76C96.663 21.824 97.431 22.08 97.879 22.528C98.359 22.976 98.727 23.536 98.983 24.208C99.271 24.88 99.367 25.536 99.271 26.176C99.015 27.616 97.831 28.608 95.719 29.152C93.063 29.536 91.783 29.888 91.879 30.208C91.879 30.272 91.767 30.352 91.543 30.448C94.007 32.144 95.719 33.808 96.679 35.44C97.991 37.68 98.183 40.176 97.255 42.928C97.415 43.824 96.615 44.944 94.855 46.288C94.439 46.608 94.071 46.896 93.751 47.152ZM117.408 38.896C116.8 39.184 116.208 39.408 115.632 39.568C115.056 39.728 114.384 39.888 113.616 40.048C111.6 40.464 110.144 40.704 109.248 40.768C109.344 41.088 109.824 41.472 110.688 41.92C111.264 42.016 111.888 41.936 112.56 41.68C113.264 41.392 113.984 41.136 114.72 40.912C115.488 40.656 116.224 40.512 116.928 40.48C117.664 40.448 118.352 40.72 118.992 41.296C119.248 41.872 119.456 42.208 119.616 42.304C119.776 42.4 119.92 42.448 120.048 42.448C120.176 42.448 120.32 42.496 120.48 42.592C120.64 42.688 120.864 43.056 121.152 43.696C121.472 44.336 121.392 44.944 120.912 45.52C120.464 46.096 119.76 46.592 118.8 47.008C117.84 47.424 116.72 47.76 115.44 48.016C114.16 48.272 112.88 48.448 111.6 48.544C108.72 48.768 106.528 48.544 105.024 47.872C102.848 47.136 101.44 45.68 100.8 43.504C99.9682 40.624 100.432 37.264 102.192 33.424C102.992 31.632 104.256 29.712 105.984 27.664C107.488 25.872 109.168 24.576 111.024 23.776C113.168 22.848 115.408 22.416 117.744 22.48C120.24 22.544 121.968 23.632 122.928 25.744C123.408 26.864 123.504 28.432 123.216 30.448C122.704 33.072 122.032 34.928 121.2 36.016C120.368 37.072 119.104 38.032 117.408 38.896ZM114.624 31.312C112.928 30.96 111.6 31.92 110.64 34.192C110.352 34.8 110.128 35.44 109.968 36.112C111.056 36.24 112.208 35.632 113.424 34.288C113.872 33.744 114.208 33.2 114.432 32.656C114.656 32.08 114.72 31.632 114.624 31.312ZM128.805 26.128C129.253 24.976 129.877 24.112 130.677 23.536C131.509 22.928 132.293 22.56 133.029 22.432C133.797 22.272 134.421 22.352 134.901 22.672C135.413 22.992 135.589 23.488 135.429 24.16C136.037 23.552 136.917 22.992 138.069 22.48C139.221 21.968 140.133 21.616 140.805 21.424C141.477 21.232 142.053 21.136 142.533 21.136C143.589 21.2 143.893 21.776 143.445 22.864C143.989 22.96 144.389 23.312 144.645 23.92C144.901 24.528 144.933 25.2 144.741 25.936C144.549 26.672 144.117 27.392 143.445 28.096C142.773 28.8 141.861 29.28 140.709 29.536C139.589 29.792 138.645 30.384 137.877 31.312C137.141 32.208 136.485 33.328 135.909 34.672C134.949 36.944 134.085 40.16 133.317 44.32C133.061 45.824 132.021 47.088 130.197 48.112C128.469 49.104 126.885 49.392 125.445 48.976C123.812 48.528 123.092 47.328 123.284 45.376C123.348 44 123.764 42.176 124.533 39.904C125.301 37.6 125.893 35.872 126.309 34.72C126.725 33.536 127.013 32.64 127.173 32.032L128.805 26.128ZM153.499 24.688C153.659 26.608 153.803 28.544 153.931 30.496C154.059 32.416 154.251 34.336 154.507 36.256C155.083 35.072 155.611 33.824 156.091 32.512C156.603 31.2 157.147 29.904 157.723 28.624C159.099 25.616 160.619 23.408 162.283 22C163.307 20.88 164.843 20.32 166.891 20.32C168.107 20.32 168.875 20.704 169.195 21.472C169.355 21.856 169.307 22.368 169.051 23.008C170.619 24.128 170.955 25.424 170.059 26.896C169.803 27.28 169.547 27.632 169.291 27.952C167.915 30.256 166.651 32.384 165.499 34.336C163.611 37.568 161.915 40.336 160.411 42.64C159.899 43.408 159.179 44.272 158.251 45.232C157.355 46.16 156.363 46.96 155.275 47.632C152.715 49.296 150.683 49.6 149.179 48.544C148.187 48.416 147.259 48.096 146.395 47.584C145.531 47.072 144.875 46.4 144.427 45.568C143.755 43.808 143.915 39.776 144.907 33.472C145.131 32.064 145.275 31.008 145.339 30.304C145.403 29.6 145.483 28.96 145.579 28.384C145.675 27.808 145.755 27.264 145.819 26.752C145.883 26.24 145.947 25.728 146.011 25.216C146.075 24.672 146.219 24.176 146.443 23.728C146.987 22.704 147.979 22.144 149.419 22.048H149.995C150.571 22.176 151.115 22.32 151.627 22.48C152.491 22.8 153.067 23.408 153.355 24.304C153.387 24.4 153.435 24.528 153.499 24.688ZM184.065 38.896C183.457 39.184 182.865 39.408 182.289 39.568C181.713 39.728 181.041 39.888 180.273 40.048C178.257 40.464 176.801 40.704 175.905 40.768C176.001 41.088 176.481 41.472 177.345 41.92C177.921 42.016 178.545 41.936 179.217 41.68C179.921 41.392 180.641 41.136 181.377 40.912C182.145 40.656 182.881 40.512 183.585 40.48C184.321 40.448 185.009 40.72 185.649 41.296C185.905 41.872 186.113 42.208 186.273 42.304C186.433 42.4 186.577 42.448 186.705 42.448C186.833 42.448 186.977 42.496 187.137 42.592C187.297 42.688 187.521 43.056 187.809 43.696C188.129 44.336 188.049 44.944 187.569 45.52C187.121 46.096 186.417 46.592 185.457 47.008C184.497 47.424 183.377 47.76 182.097 48.016C180.817 48.272 179.537 48.448 178.257 48.544C175.377 48.768 173.185 48.544 171.681 47.872C169.505 47.136 168.097 45.68 167.457 43.504C166.624 40.624 167.088 37.264 168.849 33.424C169.649 31.632 170.913 29.712 172.641 27.664C174.145 25.872 175.825 24.576 177.681 23.776C179.825 22.848 182.065 22.416 184.401 22.48C186.897 22.544 188.625 23.632 189.585 25.744C190.065 26.864 190.161 28.432 189.873 30.448C189.361 33.072 188.689 34.928 187.857 36.016C187.025 37.072 185.761 38.032 184.065 38.896ZM181.281 31.312C179.585 30.96 178.257 31.92 177.297 34.192C177.009 34.8 176.785 35.44 176.625 36.112C177.713 36.24 178.865 35.632 180.081 34.288C180.529 33.744 180.865 33.2 181.089 32.656C181.312 32.08 181.377 31.632 181.281 31.312ZM195.461 26.128C195.909 24.976 196.533 24.112 197.333 23.536C198.165 22.928 198.949 22.56 199.685 22.432C200.453 22.272 201.077 22.352 201.557 22.672C202.069 22.992 202.245 23.488 202.085 24.16C202.693 23.552 203.573 22.992 204.725 22.48C205.877 21.968 206.789 21.616 207.461 21.424C208.133 21.232 208.709 21.136 209.189 21.136C210.245 21.2 210.549 21.776 210.101 22.864C210.645 22.96 211.045 23.312 211.301 23.92C211.557 24.528 211.589 25.2 211.397 25.936C211.205 26.672 210.773 27.392 210.101 28.096C209.429 28.8 208.517 29.28 207.365 29.536C206.245 29.792 205.301 30.384 204.533 31.312C203.797 32.208 203.141 33.328 202.565 34.672C201.605 36.944 200.741 40.16 199.973 44.32C199.717 45.824 198.677 47.088 196.853 48.112C195.125 49.104 193.541 49.392 192.101 48.976C190.469 48.528 189.749 47.328 189.941 45.376C190.005 44 190.421 42.176 191.189 39.904C191.957 37.6 192.549 35.872 192.965 34.72C193.381 33.536 193.669 32.64 193.829 32.032L195.461 26.128Z" fill="#081E43"/>
</svg>
